<svg xmlns="http://www.w3.org/2000/svg" version="1.1" xmlns:xlink="http://www.w3.org/1999/xlink" xmlns:svgjs="http://svgjs.com/svgjs" width="2000" height="6000" preserveAspectRatio="none" viewBox="0 0 2000 6000"><g mask="url(&quot;#SvgjsMask1370&quot;)" fill="none"><rect width="2000" height="6000" x="0" y="0" fill="url(#SvgjsRadialGradient1371)"></rect><path d="M459.304247527009 601.278740539797L205.40726594657286 364.51597489122435-31.355499701999804 618.4129564716604 222.54148187843634 855.1757221202331z" fill="rgba(180, 36, 36, 0.23)" class="triangle-float3"></path><path d="M926.6160567270704 4941.986896691718L473.4635031925751 4910.2993832989905 441.7759897998469 5363.451936833486 894.9285433343422 5395.139450226214z" fill="rgba(180, 36, 36, 0.23)" class="triangle-float1"></path><path d="M587.9835331593243 5596.675397674431L282.10336605212296 5810.42085096424 575.2919437530533 5953.418474904259z" fill="rgba(180, 36, 36, 0.23)" class="triangle-float3"></path><path d="M806.928,1727.486C871.485,1727,944.125,1717.794,974.993,1661.093C1005.086,1605.817,971.842,1541.348,936.682,1489.148C906.51,1444.353,860.877,1414.117,806.928,1411.577C747.774,1408.792,687.58,1426.974,654.135,1475.846C616.033,1531.524,599.406,1605.988,634.422,1663.657C668.528,1719.827,741.216,1727.981,806.928,1727.486" fill="rgba(180, 36, 36, 0.23)" class="triangle-float3"></path><path d="M970.9089708426962 1735.2980564755092L590.4566804677236 1830.155466211815 1065.766380579002 2115.750346850482z" fill="rgba(180, 36, 36, 0.23)" class="triangle-float1"></path><path d="M1824.249,1907.421C1910.3,1906.571,1989.763,1861.935,2033.243,1787.672C2077.189,1712.613,2079.12,1620.278,2036.883,1544.244C1993.39,1465.948,1913.659,1416.71,1824.249,1411.444C1723.945,1405.537,1612.963,1429.003,1563.306,1516.353C1514.024,1603.043,1552.634,1708.921,1607.982,1791.87C1656.605,1864.739,1736.651,1908.286,1824.249,1907.421" fill="rgba(180, 36, 36, 0.23)" class="triangle-float3"></path><path d="M1984.969025528931 5760.451836272432L1810.855771733585 5580.15228393464 1627.46307012457 5931.471940796556z" fill="rgba(180, 36, 36, 0.23)" class="triangle-float3"></path><path d="M1072.3938545691665 4887.383035435658L728.4488078588874 5110.7435604119855 1295.7543795454942 5231.328082145937z" fill="rgba(180, 36, 36, 0.23)" class="triangle-float2"></path><path d="M748.8108160400864 865.3639863217747L1059.930619646926 1199.6372567949531 1183.2866927225834 819.986301479415z" fill="rgba(180, 36, 36, 0.23)" class="triangle-float2"></path><path d="M1368.5561312570437 3153.064522779752L987.4110235704511 2886.183845225849 720.5303460165476 3267.3289529124413 1101.6754537031402 3534.2096304663446z" fill="rgba(180, 36, 36, 0.23)" class="triangle-float3"></path><path d="M2044.6473301186131 758.4891836077142L1721.8926424205747 915.9071629104446 1879.310621723305 1238.6618506084833 2202.0653094213435 1081.2438713057527z" fill="rgba(180, 36, 36, 0.23)" class="triangle-float2"></path><path d="M610.8454722234505 2591.14938950172L279.4024602836173 2889.582017906603 577.8350886885004 3221.0250298464366 909.2781006283336 2922.592401441553z" fill="rgba(180, 36, 36, 0.23)" class="triangle-float1"></path><path d="M282.739,2050.925C427.323,2059.868,567.719,1982.006,637.879,1855.27C706.114,1732.011,686.153,1579.726,608.761,1462C538.578,1355.24,410.419,1319.653,282.739,1315.044C143.823,1310.029,-17.737,1316.241,-86.773,1436.892C-155.565,1557.117,-75.093,1696.907,-3.673,1815.589C64.613,1929.063,150.556,2042.749,282.739,2050.925" fill="rgba(180, 36, 36, 0.23)" class="triangle-float1"></path><path d="M1149.7080638242016 2399.603883825431L1698.687482928106 2588.6326569506246 1887.7162560532997 2039.6532378467205 1338.7368369493956 1850.6244647215267z" fill="rgba(180, 36, 36, 0.23)" class="triangle-float1"></path><path d="M509.2627283757144 5351.03110377818L811.6158405278596 5711.361511417539 1171.9462481672185 5409.008399265394 869.5931360150732 5048.677991626035z" fill="rgba(180, 36, 36, 0.23)" class="triangle-float1"></path><path d="M-240.11669936291582 1969.2635089336213L-149.21733636527395 2286.2672603875344 280.8386093167752 1991.4163401641151z" fill="rgba(180, 36, 36, 0.23)" class="triangle-float3"></path><path d="M1210.2697396562262 1291.1385121609715L1488.1841733023964 1736.8391968072438 1710.784229361551 1335.2580653504322z" fill="rgba(180, 36, 36, 0.23)" class="triangle-float3"></path><path d="M1527.316480801217 913.4256786513981L1712.4910681991612 628.2818193284827 1427.3472088762455 443.10723193053855 1242.1726214783016 728.2510912534541z" fill="rgba(180, 36, 36, 0.23)" class="triangle-float1"></path></g><defs><mask id="SvgjsMask1370"><rect width="2000" height="6000" fill="#ffffff"></rect></mask><radialGradient cx="0%" cy="0%" r="6324.56" gradientUnits="userSpaceOnUse" id="SvgjsRadialGradient1371"><stop stop-color="rgba(255, 253, 25, 0.74)" offset="0"></stop><stop stop-color="rgba(255, 42, 42, 0.49)" offset="1"></stop></radialGradient><style>
            @keyframes float1 {
                0%{transform: translate(0, 0)}
                50%{transform: translate(-10px, 0)}
                100%{transform: translate(0, 0)}
            }

            .triangle-float1 {
                animation: float1 5s infinite;
            }

            @keyframes float2 {
                0%{transform: translate(0, 0)}
                50%{transform: translate(-5px, -5px)}
                100%{transform: translate(0, 0)}
            }

            .triangle-float2 {
                animation: float2 4s infinite;
            }

            @keyframes float3 {
                0%{transform: translate(0, 0)}
                50%{transform: translate(0, -10px)}
                100%{transform: translate(0, 0)}
            }

            .triangle-float3 {
                animation: float3 6s infinite;
            }
        </style></defs></svg>