<svg xmlns="http://www.w3.org/2000/svg" version="1.1" xmlns:xlink="http://www.w3.org/1999/xlink" xmlns:svgjs="http://svgjs.com/svgjs" width="2000" height="6000" preserveAspectRatio="none" viewBox="0 0 2000 6000"><g mask="url(&quot;#SvgjsMask1174&quot;)" fill="none"><rect width="2000" height="6000" x="0" y="0" fill="url(#SvgjsRadialGradient1175)"></rect><path d="M-75.39557605662253 2976.2106127094467L503.18475855799466 2945.8885022354552 472.86264808400335 2367.308167620838-105.71768653061379 2397.6302780948295z" fill="rgba(180, 36, 36, 0.23)" class="triangle-float1"></path><path d="M1844.4159193819246 4053.7370919955624L1454.2245634017493 4552.179386340473 2000.7569866191607 4638.741618310975z" fill="rgba(180, 36, 36, 0.23)" class="triangle-float1"></path><path d="M1459.444,5186.973C1545.422,5192.576,1640.732,5174.395,1684.434,5100.141C1728.565,5025.159,1699.041,4932.301,1652.651,4858.695C1609.768,4790.653,1539.849,4741.242,1459.444,4743.152C1381.908,4744.994,1318.485,4799.336,1281.505,4867.51C1246.364,4932.293,1244.227,5009.407,1280.09,5073.793C1316.959,5139.986,1383.836,5182.046,1459.444,5186.973" fill="rgba(180, 36, 36, 0.23)" class="triangle-float2"></path><path d="M1817.331,6296.953C2019.575,6296.682,2173.011,6138.75,2275.396,5964.337C2379.413,5787.144,2445.537,5574.35,2347.527,5393.764C2245.864,5206.448,2030.272,5111.465,1817.331,5120.34C1618.746,5128.616,1453.569,5260.421,1358.527,5434.982C1267.883,5601.465,1268.071,5798.234,1357.138,5965.566C1452.333,6144.412,1614.728,6297.224,1817.331,6296.953" fill="rgba(180, 36, 36, 0.23)" class="triangle-float2"></path><path d="M674.1780272158732 34.4372419665622L764.4080119369814 371.1801293119018 1224.4073505944366 67.46370855756962z" fill="rgba(180, 36, 36, 0.23)" class="triangle-float1"></path><path d="M924.349,5195.029C1013.3,5196.961,1102.083,5158.177,1145.494,5080.514C1188.028,5004.419,1170.621,4911.243,1124.232,4837.434C1080.969,4768.598,1005.488,4723.497,924.349,4728.65C850.398,4733.347,802.145,4796.729,764.083,4860.306C724.506,4926.414,685.967,5001.761,719.241,5071.255C756.202,5148.45,838.782,5193.17,924.349,5195.029" fill="rgba(180, 36, 36, 0.23)" class="triangle-float1"></path><path d="M-17.766292688020826 293.4335217851533L-314.1232713336355 646.6180157764302 39.06122265764145 942.9749944220449 335.4182013032561 589.7905004307679z" fill="rgba(180, 36, 36, 0.23)" class="triangle-float1"></path><path d="M1475.42112566416 3130.627144972938L999.1932616411045 3464.08548526739 1332.6516019355568 3940.3133492904453 1808.879465958612 3606.855008995993z" fill="rgba(180, 36, 36, 0.23)" class="triangle-float2"></path><path d="M2092.0231949789895 5785.323724696143L1965.0542650295927 5436.479456687859 1616.2099970213096 5563.448386637257 1743.1789269707065 5912.292654645539z" fill="rgba(180, 36, 36, 0.23)" class="triangle-float2"></path><path d="M1146.217005936483 4970.34951674975L999.6374354826289 5332.153563610173 1338.3375153516633 5290.566423025674z" fill="rgba(180, 36, 36, 0.23)" class="triangle-float3"></path><path d="M2202.566,2295.577C2380.109,2296.942,2562.001,2243.876,2656.664,2093.669C2757.172,1934.188,2757.446,1728.804,2662.324,1566.053C2568.037,1404.731,2389.411,1318.656,2202.566,1316.722C2012.008,1314.749,1820.911,1391.098,1726.018,1556.36C1631.458,1721.042,1657.504,1927.173,1760.398,2086.78C1855.055,2233.611,2027.873,2294.234,2202.566,2295.577" fill="rgba(180, 36, 36, 0.23)" class="triangle-float1"></path><path d="M1622.6629281583944 4946.207984296842L1344.2393538898493 5188.23790490388 1586.2692744968867 5466.661479172425 1864.6928487654318 5224.631558565387z" fill="rgba(180, 36, 36, 0.23)" class="triangle-float3"></path><path d="M1021.5242976135085 3439.80172555469L1300.2404068597916 3251.805336086888 833.5279081457061 3161.085616308407z" fill="rgba(180, 36, 36, 0.23)" class="triangle-float1"></path><path d="M1589.013548486615 3531.711234356133L1137.8713820257337 3669.6392363429545 1275.7993840125555 4120.781402803836 1726.9415504734368 3982.8534008170145z" fill="rgba(180, 36, 36, 0.23)" class="triangle-float2"></path><path d="M533.3694943330692 5046.367931396575L369.7589554452425 4595.515230723605 94.69674313808855 4911.938109782073z" fill="rgba(180, 36, 36, 0.23)" class="triangle-float3"></path><path d="M1676.060167452702 326.3415928975103L2131.9432870862515 286.4569880367421 2092.058682225483-169.4261315968073 1636.1755625919338-129.5415267360391z" fill="rgba(180, 36, 36, 0.23)" class="triangle-float3"></path><path d="M1353.587,2118.174C1441.874,2119.933,1512.276,2055.27,1558.581,1980.08C1607.836,1900.1,1645.138,1801.859,1598.652,1720.238C1551.848,1638.058,1448.14,1622.119,1353.587,1620.148C1254.214,1618.077,1137.626,1622.308,1090.165,1709.64C1043.718,1795.105,1109.558,1890.434,1162.27,1972.184C1208.862,2044.443,1267.626,2116.461,1353.587,2118.174" fill="rgba(180, 36, 36, 0.23)" class="triangle-float1"></path><path d="M625.6482320555909 979.4311004102333L783.7462760632911 837.078982190122 491.16907672927425 671.1079752886274z" fill="rgba(180, 36, 36, 0.23)" class="triangle-float3"></path><path d="M569.689,4419.082C681.527,4420.591,771.731,4336.36,825.129,4238.082C875.898,4144.642,882.252,4032.935,829.74,3940.463C776.582,3846.854,677.336,3787.516,569.689,3788.263C463.28,3789.002,367.112,3850.798,315.817,3944.031C266.306,4034.022,277.503,4140.76,325.914,4231.348C377.725,4328.298,459.773,4417.599,569.689,4419.082" fill="rgba(180, 36, 36, 0.23)" class="triangle-float2"></path></g><defs><mask id="SvgjsMask1174"><rect width="2000" height="6000" fill="#ffffff"></rect></mask><radialGradient cx="0%" cy="0%" r="6324.56" gradientUnits="userSpaceOnUse" id="SvgjsRadialGradient1175"><stop stop-color="rgba(255, 253, 25, 0.74)" offset="0"></stop><stop stop-color="rgba(255, 42, 42, 0.49)" offset="1"></stop></radialGradient><style>
            @keyframes float1 {
                0%{transform: translate(0, 0)}
                50%{transform: translate(-10px, 0)}
                100%{transform: translate(0, 0)}
            }

            .triangle-float1 {
                animation: float1 5s infinite;
            }

            @keyframes float2 {
                0%{transform: translate(0, 0)}
                50%{transform: translate(-5px, -5px)}
                100%{transform: translate(0, 0)}
            }

            .triangle-float2 {
                animation: float2 4s infinite;
            }

            @keyframes float3 {
                0%{transform: translate(0, 0)}
                50%{transform: translate(0, -10px)}
                100%{transform: translate(0, 0)}
            }

            .triangle-float3 {
                animation: float3 6s infinite;
            }
        </style></defs></svg>