<svg xmlns="http://www.w3.org/2000/svg" version="1.1" xmlns:xlink="http://www.w3.org/1999/xlink" xmlns:svgjs="http://svgjs.com/svgjs" width="2000" height="6000" preserveAspectRatio="none" viewBox="0 0 2000 6000"><g mask="url(&quot;#SvgjsMask1338&quot;)" fill="none"><rect width="2000" height="6000" x="0" y="0" fill="url(#SvgjsLinearGradient1339)"></rect><path d="M498.1633707655573 2537.850753801259L702.1137581028308 2169.9145153387135 334.177519640285 1965.9641280014398 130.22713230301156 2333.900366463986z" fill="rgba(180, 36, 36, 0.23)" class="triangle-float1"></path><path d="M362.0023477504815 3583.9703967711707L736.3369093008333 3183.3119439586408 271.257758851958 3067.3546882132196z" fill="rgba(180, 36, 36, 0.23)" class="triangle-float1"></path><path d="M1069.5097258614533 2661.2800027603616L700.5710004261568 2810.3409235624176 849.6319212282128 3179.279648997714 1218.5706466635093 3030.218728195658z" fill="rgba(180, 36, 36, 0.23)" class="triangle-float3"></path><path d="M1535.6799218122023 4854.489565516365L1961.912303126625 4921.998142679044 2029.420880289304 4495.765761364621 1603.1884989748814 4428.2571842019415z" fill="rgba(180, 36, 36, 0.23)" class="triangle-float2"></path><path d="M1483.355838536403 2614.2781299161197L1101.4605222501532 3069.4032450951604 1938.4809537154435 2996.1734462023696z" fill="rgba(180, 36, 36, 0.23)" class="triangle-float2"></path><path d="M95.97664452361471 6280.063644747154L438.95906882507256 5899.143071951499-284.94392827204064 5937.081220445696z" fill="rgba(180, 36, 36, 0.23)" class="triangle-float3"></path><path d="M74.17899390213654 548.8775143022519L298.58046676395077 240.01538412814813-10.281663410153072 15.613911266333957-234.68313627196727 324.4760414404377z" fill="rgba(180, 36, 36, 0.23)" class="triangle-float1"></path><path d="M1919.6334737907505 3869.120306080473L2079.6380584248154 3473.095062166364 1683.6128145107066 3313.0904775322992 1523.6082298766419 3709.115721446408z" fill="rgba(180, 36, 36, 0.23)" class="triangle-float2"></path><path d="M685.0201530898488 669.2959156746742L986.7418900561104 797.3691945198707 1114.8151689013068 495.6474575536092 813.0934319350453 367.5741787084127z" fill="rgba(180, 36, 36, 0.23)" class="triangle-float2"></path><path d="M704.3085664380155 418.583322404028L1001.3297633484178 52.50658825510163 595.4979772443505-19.052505264152217z" fill="rgba(180, 36, 36, 0.23)" class="triangle-float1"></path><path d="M1764.685,4370.219C1903.347,4380.361,2058.647,4350.965,2127.847,4230.378C2196.846,4110.139,2139.633,3964.121,2064.631,3847.532C1996.849,3742.166,1889.967,3664.995,1764.685,3665.852C1640.773,3666.7,1530.987,3742.743,1471.766,3851.59C1415.108,3955.727,1424.893,4079.999,1483.194,4183.225C1542.569,4288.351,1644.272,4361.411,1764.685,4370.219" fill="rgba(180, 36, 36, 0.23)" class="triangle-float1"></path><path d="M1665.222,2660.636C1868.443,2658.067,2047.6,2528.146,2139.854,2347.053C2224.398,2181.095,2183.094,1989.094,2089.296,1828.185C1996.314,1668.675,1849.578,1542.926,1665.222,1532.828C1462.578,1521.728,1256.664,1602.832,1152.25,1776.86C1045.142,1955.378,1064.83,2179.271,1169.338,2359.323C1273.404,2538.613,1457.936,2663.257,1665.222,2660.636" fill="rgba(180, 36, 36, 0.23)" class="triangle-float2"></path><path d="M2099.149178693643 4701.08517145392L1617.330464979978 4990.591062034976 2388.655069274699 5182.903885167586z" fill="rgba(180, 36, 36, 0.23)" class="triangle-float2"></path><path d="M373.813,2499.495C479.534,2497.953,575.286,2445.967,633.629,2357.789C699.566,2258.134,743.113,2132.5,686.132,2027.467C627.209,1918.855,497.186,1871.962,373.813,1878.874C261.771,1885.151,171.69,1961.519,116.747,2059.367C63.112,2154.886,45.279,2270.972,100.529,2365.566C155.366,2459.454,265.096,2501.081,373.813,2499.495" fill="rgba(180, 36, 36, 0.23)" class="triangle-float1"></path><path d="M1608.7178918167274 1327.9157851549357L1500.9144132941822 1031.728162175582 1204.7267903148283 1139.531640698127 1312.5302688373736 1435.719263677481z" fill="rgba(180, 36, 36, 0.23)" class="triangle-float1"></path><path d="M1777.0568403830796 607.68186580103L2117.4212845932843 441.67503437060583 1951.4144531628604 101.31059016040086 1611.0500089526554 267.317421590825z" fill="rgba(180, 36, 36, 0.23)" class="triangle-float2"></path><path d="M1996.822255584827 319.0194864077344L1874.2988767726056-138.24398843448301 1539.5587807426095 441.54286521995573z" fill="rgba(180, 36, 36, 0.23)" class="triangle-float3"></path><path d="M1424.797623389755 2740.610895243466L1037.7622994231644 2873.8778446036745 1171.029248783373 3260.913168570265 1558.0645727499636 3127.6462192100566z" fill="rgba(180, 36, 36, 0.23)" class="triangle-float1"></path><path d="M1878.938,1102.896C2021.972,1108.136,2174.99,1072.549,2249.343,950.247C2325.984,824.181,2294.249,666.956,2222.252,538.181C2148.163,405.664,2030.76,287.747,1878.938,287.736C1727.101,287.725,1604.743,402.982,1535.534,538.129C1472.516,661.187,1480.905,806.597,1552.734,924.728C1621.725,1038.191,1746.235,1098.035,1878.938,1102.896" fill="rgba(180, 36, 36, 0.23)" class="triangle-float2"></path></g><defs><mask id="SvgjsMask1338"><rect width="2000" height="6000" fill="#ffffff"></rect></mask><linearGradient x1="50%" y1="0%" x2="50%" y2="100%" gradientUnits="userSpaceOnUse" id="SvgjsLinearGradient1339"><stop stop-color="rgba(255, 253, 25, 1)" offset="0"></stop><stop stop-color="rgba(255, 42, 42, 0.49)" offset="1"></stop></linearGradient><style>
            @keyframes float1 {
                0%{transform: translate(0, 0)}
                50%{transform: translate(-10px, 0)}
                100%{transform: translate(0, 0)}
            }

            .triangle-float1 {
                animation: float1 5s infinite;
            }

            @keyframes float2 {
                0%{transform: translate(0, 0)}
                50%{transform: translate(-5px, -5px)}
                100%{transform: translate(0, 0)}
            }

            .triangle-float2 {
                animation: float2 4s infinite;
            }

            @keyframes float3 {
                0%{transform: translate(0, 0)}
                50%{transform: translate(0, -10px)}
                100%{transform: translate(0, 0)}
            }

            .triangle-float3 {
                animation: float3 6s infinite;
            }
        </style></defs></svg>